<svg xmlns="http://www.w3.org/2000/svg" viewBox="0 0 128 128" fill="none">
  <defs>
    <linearGradient id="fd-bg" x1="0" y1="0" x2="128" y2="128" gradientUnits="userSpaceOnUse">
      <stop stop-color="#6366F1"/>
      <stop offset="1" stop-color="#A855F7"/>
    </linearGradient>
  </defs>
  <rect width="128" height="128" rx="28" fill="url(#fd-bg)"/>
  <rect x="2" y="2" width="124" height="124" rx="26" stroke="#ffffff" stroke-opacity="0.2" stroke-width="2"/>
  <rect x="24" y="26" width="80" height="60" rx="10" fill="#ffffff" fill-opacity="0.15" stroke="#ffffff" stroke-width="5"/>
  <circle cx="37" cy="38" r="3.5" fill="#ffffff" fill-opacity="0.8"/>
  <circle cx="47" cy="38" r="3.5" fill="#ffffff" fill-opacity="0.8"/>
  <circle cx="57" cy="38" r="3.5" fill="#ffffff" fill-opacity="0.8"/>
  <rect x="34" y="48" width="16" height="28" rx="4" fill="#ffffff" fill-opacity="0.3"/>
  <rect x="56" y="48" width="38" height="12" rx="4" fill="#ffffff" fill-opacity="0.4"/>
  <rect x="56" y="64" width="24" height="12" rx="4" fill="#ffffff" fill-opacity="0.3"/>
  <path d="M88 78L104 94M100 82L84 98" stroke="#FDE047" stroke-width="6" stroke-linecap="round"/>
  <path d="M94 72L96 78L102 80L96 82L94 88L92 82L86 80L92 78Z" fill="#FDE047"/>
</svg>
